<?xml version="1.0" encoding="UTF-8" standalone="no"?>
<!DOCTYPE svg PUBLIC "-//W3C//DTD SVG 1.1//EN" "http://www.w3.org/Graphics/SVG/1.1/DTD/svg11.dtd">
<svg width="100%" height="100%" viewBox="0 0 577 166" version="1.1" xmlns="http://www.w3.org/2000/svg" xmlns:xlink="http://www.w3.org/1999/xlink" xml:space="preserve" xmlns:serif="http://www.serif.com/" style="fill-rule:evenodd;clip-rule:evenodd;stroke-linejoin:round;stroke-miterlimit:2;">
    <g id="Artboard1" transform="matrix(0.95637,0,0,0.820459,-40.5651,-35.2631)">
        <rect x="42.416" y="42.98" width="603.111" height="201.203" style="fill:none;"/>
        <g>
            <g transform="matrix(1.0483,0,0,1.22195,-15.2407,-24.2274)">
                <path d="M306.26,91.538L298.667,91.538L298.667,55L329.274,55L329.274,91.538L321.919,91.538L321.919,61.643L306.26,61.643L306.26,91.538Z" style="fill:white;fill-rule:nonzero;"/>
            </g>
            <g transform="matrix(1.0483,0,0,1.22195,-15.2407,-24.2274)">
                <path d="M349.678,92.25C345.645,92.25 342.086,91.063 339.476,88.453C336.629,85.844 335.205,82.522 335.205,78.488C335.205,74.692 336.391,71.371 339.001,68.761C341.611,66.151 344.696,64.727 348.729,64.727C352.525,64.727 355.61,66.151 357.745,68.761C360.117,71.371 361.067,74.692 361.067,78.488L361.067,80.387L342.323,80.387C342.797,82.047 343.746,83.471 345.17,84.42C346.831,85.369 348.729,85.844 351.102,85.844C353.949,85.844 356.796,85.132 359.406,83.471L359.406,89.402C357.27,91.301 353.949,92.25 349.678,92.25ZM342.56,75.879L353.949,75.879C353.949,74.455 353.237,73.031 352.288,72.082C351.339,71.133 349.915,70.659 348.492,70.659C346.831,70.659 345.407,71.133 344.458,72.082C343.272,73.031 342.797,74.218 342.56,75.879Z" style="fill:white;fill-rule:nonzero;"/>
            </g>
            <g transform="matrix(1.0483,0,0,1.22195,-15.2407,-24.2274)">
                <path d="M382.657,64.727C386.216,64.727 389.063,66.151 391.435,68.761C393.808,71.371 394.994,74.692 394.994,78.488C394.994,82.285 393.808,85.606 391.435,88.216C389.063,90.826 386.216,92.25 382.657,92.25C379.098,92.25 376.251,91.063 374.115,88.453L374.115,101.977L366.76,101.977L366.76,65.439L374.115,65.439L374.115,68.524C376.251,66.151 379.098,64.727 382.657,64.727ZM380.759,71.133C379.335,71.133 378.149,71.608 376.962,72.32C375.776,73.031 374.827,73.981 374.353,75.167L374.353,82.047C375.064,83.234 375.776,84.183 376.962,84.894C378.149,85.606 379.335,85.844 380.759,85.844C382.894,85.844 384.555,85.132 385.741,83.708C387.165,82.285 387.639,80.624 387.639,78.488C387.639,76.353 386.927,74.692 385.741,73.269C384.555,71.845 382.657,71.133 380.759,71.133Z" style="fill:white;fill-rule:nonzero;"/>
            </g>
            <g transform="matrix(1.0483,0,0,1.22195,-15.2407,-24.2274)">
                <path d="M413.264,92.25C409.23,92.25 405.672,91.063 403.062,88.453C400.215,85.844 398.791,82.522 398.791,78.488C398.791,74.692 399.977,71.371 402.587,68.761C405.197,66.151 408.281,64.727 412.315,64.727C416.111,64.727 419.195,66.151 421.331,68.761C423.703,71.371 424.652,74.692 424.652,78.488L424.652,80.387L405.909,80.387C406.383,82.047 407.332,83.471 408.756,84.42C410.417,85.369 412.315,85.844 414.688,85.844C417.535,85.844 420.382,85.132 422.992,83.471L422.992,89.402C420.856,91.301 417.535,92.25 413.264,92.25ZM405.909,75.879L417.297,75.879C417.297,74.455 416.586,73.031 415.637,72.082C414.687,71.133 413.264,70.659 411.84,70.659C410.18,70.659 408.756,71.133 407.807,72.082C406.858,73.031 406.146,74.218 405.909,75.879Z" style="fill:white;fill-rule:nonzero;"/>
            </g>
            <g transform="matrix(1.0483,0,0,1.22195,-15.2407,-24.2274)">
                <path d="M434.854,98.182L427.736,98.182L427.736,85.37L431.058,85.37C432.956,82.285 434.142,77.303 434.142,70.659L434.142,65.677L455.97,65.677L455.97,85.607L460.241,85.607L460.241,98.419L453.598,98.419L453.598,91.776L434.854,91.776L434.854,98.182ZM438.65,85.37L449.09,85.37L449.09,71.609L441.023,71.609C441.023,77.065 440.074,81.573 438.65,85.37Z" style="fill:white;fill-rule:nonzero;"/>
            </g>
            <g transform="matrix(1.0483,0,0,1.22195,-15.2407,-24.2274)">
                <path d="M471.155,78.488C471.155,80.624 471.867,82.285 473.291,83.708C474.714,85.132 476.375,85.844 478.51,85.844C480.646,85.844 482.307,85.132 483.73,83.708C485.154,82.285 485.866,80.624 485.866,78.488C485.866,76.353 485.154,74.692 483.73,73.269C482.307,71.845 480.646,71.133 478.51,71.133C476.375,71.133 474.714,71.845 473.291,73.269C471.867,74.692 471.155,76.353 471.155,78.488ZM463.8,78.488C463.8,74.692 465.224,71.371 467.834,68.761C470.444,66.151 474.002,64.727 478.273,64.727C482.544,64.727 485.866,66.151 488.713,68.761C491.323,71.371 492.746,74.692 492.746,78.488C492.746,82.285 491.323,85.606 488.713,88.216C486.103,90.826 482.544,92.25 478.273,92.25C474.002,92.25 470.681,90.826 467.834,88.216C465.224,85.606 463.8,82.285 463.8,78.488Z" style="fill:white;fill-rule:nonzero;"/>
            </g>
            <g transform="matrix(1.0483,0,0,1.22195,-15.2407,-24.2274)">
                <path d="M513.624,91.539L498.202,91.539L498.202,65.44L512.912,65.44C515.522,65.44 517.658,66.152 519.081,67.338C520.505,68.525 521.216,70.185 521.216,72.084C521.216,74.693 520.267,76.591 518.132,77.541C521.454,78.727 523.115,80.862 523.115,84.184C523.115,86.319 522.165,88.217 520.505,89.403C518.844,90.827 516.708,91.539 513.624,91.539ZM505.557,80.625L505.557,86.556L511.726,86.556C514.336,86.556 515.522,85.607 515.522,83.709C515.522,81.811 514.336,80.862 511.726,80.862L505.557,80.862L505.557,80.625ZM505.557,70.66L505.557,75.88L510.777,75.88C513.15,75.88 514.336,74.931 514.336,73.27C514.336,71.609 512.912,70.66 510.54,70.66L505.557,70.66Z" style="fill:white;fill-rule:nonzero;"/>
            </g>
            <g transform="matrix(1.0483,0,0,1.22195,-15.2407,-24.2274)">
                <path d="M562.5,91.539L555.145,91.539L555.145,65.44L562.5,65.44L562.5,91.539ZM541.858,91.539L528.809,91.539L528.809,65.44L536.164,65.44L536.164,73.033L541.383,73.033C544.705,73.033 547.315,73.982 549.213,75.642C551.111,77.303 552.06,79.439 552.06,82.286C552.06,84.896 551.111,87.031 549.45,88.929C547.552,90.59 545.18,91.539 541.858,91.539ZM536.164,78.49L536.164,85.845L540.434,85.845C541.858,85.845 543.044,85.607 543.756,84.896C544.468,84.184 544.942,83.472 544.942,82.286C544.942,81.099 544.468,80.15 543.756,79.676C543.044,78.964 541.858,78.727 540.434,78.727L536.164,78.727L536.164,78.49Z" style="fill:white;fill-rule:nonzero;"/>
            </g>
            <g transform="matrix(1.0483,0,0,1.22195,-15.2407,-24.2274)">
                <path d="M582.668,92.25C578.634,92.25 575.075,91.063 572.466,88.453C569.618,85.844 568.195,82.522 568.195,78.488C568.195,74.692 569.381,71.371 571.991,68.761C574.601,66.151 577.685,64.727 581.719,64.727C585.515,64.727 588.599,66.151 590.735,68.761C593.107,71.371 594.056,74.692 594.056,78.488L594.056,80.387L575.313,80.387C575.787,82.047 576.736,83.471 578.16,84.42C579.821,85.369 581.719,85.844 584.091,85.844C586.938,85.844 589.786,85.132 592.395,83.471L592.395,89.402C590.26,91.301 586.938,92.25 582.668,92.25ZM575.313,75.879L586.701,75.879C586.701,74.455 585.989,73.031 585.04,72.082C584.091,71.133 582.668,70.659 581.244,70.659C579.583,70.659 578.16,71.133 577.211,72.082C576.262,73.031 575.55,74.218 575.313,75.879Z" style="fill:white;fill-rule:nonzero;"/>
            </g>
            <g transform="matrix(1.0483,0,0,1.22195,-15.2407,-24.2274)">
                <path d="M305.072,153.225L298.192,153.225L298.192,127.127L305.547,127.127L305.547,142.549L317.41,127.127L324.291,127.127L324.291,153.225L316.935,153.225L316.935,137.804L305.072,153.225Z" style="fill:white;fill-rule:nonzero;"/>
            </g>
            <g transform="matrix(1.0483,0,0,1.22195,-15.2407,-24.2274)">
                <path d="M338.762,153.225L331.407,153.225L331.407,127.127L338.762,127.127L338.762,136.855L349.439,136.855L349.439,127.127L356.794,127.127L356.794,153.225L349.439,153.225L349.439,143.023L338.762,143.023L338.762,153.225Z" style="fill:white;fill-rule:nonzero;"/>
            </g>
            <g transform="matrix(1.0483,0,0,1.22195,-15.2407,-24.2274)">
                <path d="M369.845,153.225L361.066,153.225L372.218,139.227L362.253,127.127L370.557,127.127L378.386,136.855L378.386,127.127L385.741,127.127L385.741,136.855L393.571,127.127L401.875,127.127L391.91,139.227L403.299,153.225L394.283,153.225L385.741,142.074L385.741,153.225L378.386,153.225L378.386,142.074L369.845,153.225Z" style="fill:white;fill-rule:nonzero;"/>
            </g>
            <g transform="matrix(1.0483,0,0,1.22195,-15.2407,-24.2274)">
                <path d="M418.009,153.938C413.975,153.938 410.416,152.752 407.806,150.142C404.959,147.532 403.536,144.211 403.536,140.177C403.536,136.381 404.722,133.059 407.332,130.45C409.942,127.84 413.026,126.416 417.06,126.416C420.856,126.416 423.94,127.84 426.075,130.45C428.448,133.059 429.397,136.381 429.397,140.177L429.397,142.075L410.891,142.075C411.365,143.736 412.314,145.16 413.738,146.109C415.399,147.058 417.297,147.532 419.669,147.532C422.516,147.532 425.364,146.82 427.973,145.16L427.973,151.091C425.601,152.989 422.279,153.938 418.009,153.938ZM410.891,137.567L422.279,137.567C422.279,136.144 421.567,134.72 420.618,133.771C419.669,132.822 418.246,132.348 416.822,132.348C415.161,132.348 413.738,132.822 412.789,133.771C411.603,134.72 411.128,135.906 410.891,137.567Z" style="fill:white;fill-rule:nonzero;"/>
            </g>
            <g transform="matrix(1.0483,0,0,1.22195,-15.2407,-24.2274)">
                <path d="M442.447,153.225L435.092,153.225L435.092,127.127L442.447,127.127L442.447,136.855L453.124,136.855L453.124,127.127L460.479,127.127L460.479,153.225L453.124,153.225L453.124,143.023L442.447,143.023L442.447,153.225Z" style="fill:white;fill-rule:nonzero;"/>
            </g>
            <g transform="matrix(1.0483,0,0,1.22195,-15.2407,-24.2274)">
                <path d="M480.645,153.938C476.612,153.938 473.053,152.752 470.443,150.142C467.596,147.532 466.172,144.211 466.172,140.177C466.172,136.381 467.359,133.059 469.969,130.45C472.578,127.84 475.663,126.416 479.696,126.416C483.492,126.416 486.577,127.84 488.712,130.45C491.085,133.059 492.034,136.381 492.034,140.177L492.034,142.075L473.29,142.075C473.765,143.736 474.714,145.16 476.137,146.109C477.798,147.058 479.696,147.532 482.069,147.532C484.916,147.532 487.763,146.82 490.373,145.16L490.373,151.091C488.238,152.989 484.916,153.938 480.645,153.938ZM473.527,137.567L484.916,137.567C484.916,136.144 484.204,134.72 483.255,133.771C482.306,132.822 480.882,132.348 479.459,132.348C477.798,132.348 476.375,132.822 475.426,133.771C474.239,134.72 473.527,135.906 473.527,137.567Z" style="fill:white;fill-rule:nonzero;"/>
            </g>
            <g transform="matrix(1.0483,0,0,1.22195,-15.2407,-24.2274)">
                <path d="M513.624,126.416C517.183,126.416 520.03,127.84 522.403,130.45C524.775,133.059 525.962,136.381 525.962,140.177C525.962,143.973 524.775,147.295 522.403,149.905C520.03,152.515 517.183,153.701 513.624,153.701C510.065,153.701 507.218,152.515 505.083,149.905L505.083,163.429L497.728,163.429L497.728,127.128L505.083,127.128L505.083,130.212C506.981,127.84 509.828,126.416 513.624,126.416ZM511.489,132.822C510.065,132.822 508.879,133.297 507.692,134.008C506.506,134.72 505.557,135.669 505.083,136.856L505.083,143.736C505.794,144.922 506.506,145.871 507.692,146.583C508.879,147.295 510.065,147.532 511.489,147.532C513.624,147.532 515.285,146.82 516.471,145.397C517.895,143.973 518.369,142.313 518.369,140.177C518.369,138.042 517.657,136.381 516.471,134.957C515.285,133.534 513.624,132.822 511.489,132.822Z" style="fill:white;fill-rule:nonzero;"/>
            </g>
            <g transform="matrix(1.0483,0,0,1.22195,-15.2407,-24.2274)">
                <path d="M538.774,153.225L531.419,153.225L531.419,127.127L538.774,127.127L538.774,136.855L549.451,136.855L549.451,127.127L556.806,127.127L556.806,153.225L549.451,153.225L549.451,143.023L538.774,143.023L538.774,153.225Z" style="fill:white;fill-rule:nonzero;"/>
            </g>
            <g transform="matrix(1.0483,0,0,1.22195,-15.2407,-24.2274)">
                <path d="M597.852,153.225L590.497,153.225L590.497,127.127L597.852,127.127L597.852,153.225ZM576.973,153.225L563.924,153.225L563.924,127.127L571.279,127.127L571.279,134.719L576.499,134.719C579.82,134.719 582.43,135.668 584.328,137.329C586.226,138.99 587.175,141.125 587.175,143.972C587.175,146.582 586.226,148.718 584.565,150.616C582.905,152.276 580.295,153.225 576.973,153.225ZM571.279,140.176L571.279,147.531L575.55,147.531C576.973,147.531 578.159,147.294 578.871,146.582C579.583,145.87 580.058,145.159 580.058,143.972C580.058,142.786 579.583,141.837 578.871,141.362C578.159,140.651 576.973,140.413 575.55,140.413L571.279,140.413L571.279,140.176Z" style="fill:white;fill-rule:nonzero;"/>
            </g>
            <g transform="matrix(1.0483,0,0,1.22195,-15.2407,-24.2274)">
                <path d="M617.782,153.938C613.749,153.938 610.19,152.752 607.58,150.142C604.97,147.532 603.31,144.211 603.31,140.177C603.31,136.381 604.496,133.059 607.106,130.45C609.716,127.84 612.8,126.416 616.833,126.416C620.63,126.416 623.714,127.84 625.849,130.45C628.222,133.059 629.171,136.381 629.171,140.177L629.171,142.075L610.427,142.075C610.902,143.736 611.851,145.16 613.275,146.109C614.935,147.058 616.833,147.532 619.206,147.532C622.053,147.532 624.9,146.82 627.51,145.16L627.51,151.091C625.375,152.989 622.053,153.938 617.782,153.938ZM610.665,137.567L622.053,137.567C622.053,136.144 621.341,134.72 620.392,133.771C619.443,132.822 618.02,132.348 616.596,132.348C614.935,132.348 613.512,132.822 612.563,133.771C611.376,134.72 610.665,135.906 610.665,137.567Z" style="fill:white;fill-rule:nonzero;"/>
            </g>
            <g transform="matrix(1.0483,0,0,1.22195,-15.2407,-24.2274)">
                <path d="M335.916,214.914L298.192,214.914L298.192,188.816L305.547,188.816L305.547,208.746L313.377,208.746L313.377,188.816L320.494,188.816L320.494,208.746L328.561,208.746L328.561,188.816L335.679,188.816L335.679,214.914L335.916,214.914Z" style="fill:white;fill-rule:nonzero;"/>
            </g>
            <g transform="matrix(1.0483,0,0,1.22195,-15.2407,-24.2274)">
                <path d="M350.389,214.914L343.034,214.914L343.034,188.816L350.389,188.816L350.389,198.306L359.405,188.816L368.421,188.816L357.032,200.679L370.081,214.914L360.591,214.914L350.389,203.763L350.389,214.914Z" style="fill:white;fill-rule:nonzero;"/>
            </g>
            <g transform="matrix(1.0483,0,0,1.22195,-15.2407,-24.2274)">
                <path d="M377.911,201.864C377.911,203.999 378.623,205.66 380.047,207.084C381.47,208.507 383.131,209.219 385.266,209.219C387.402,209.219 389.063,208.507 390.486,207.084C391.91,205.66 392.621,203.999 392.621,201.864C392.621,199.729 391.91,198.068 390.486,196.644C389.063,195.221 387.402,194.509 385.266,194.509C383.131,194.509 381.47,195.221 380.047,196.644C378.623,198.068 377.911,199.729 377.911,201.864ZM370.793,201.864C370.793,198.068 372.217,194.746 374.827,192.136C377.437,189.526 380.996,188.103 385.266,188.103C389.537,188.103 392.859,189.526 395.706,192.136C398.316,194.746 399.739,198.068 399.739,201.864C399.739,205.66 398.316,208.982 395.706,211.592C393.096,214.201 389.537,215.625 385.266,215.625C380.996,215.625 377.674,214.201 374.827,211.592C371.98,208.982 370.793,205.66 370.793,201.864Z" style="fill:white;fill-rule:nonzero;"/>
            </g>
            <g transform="matrix(1.0483,0,0,1.22195,-15.2407,-24.2274)">
                <path d="M422.753,194.984L414.687,194.984L414.687,198.543C414.449,202.339 414.212,205.424 413.5,207.796C412.789,210.169 411.839,211.83 410.416,213.253C408.992,214.439 407.094,215.151 404.722,215.151C403.535,215.151 402.586,214.914 401.875,214.677L401.875,208.745C402.349,208.983 402.824,208.983 403.298,208.983C404.959,208.983 406.145,207.796 406.62,205.661C407.094,203.763 407.332,200.678 407.569,196.645L407.806,189.053L430.346,189.053L430.346,215.151L422.753,215.151L422.753,194.984Z" style="fill:white;fill-rule:nonzero;"/>
            </g>
            <g transform="matrix(1.0483,0,0,1.22195,-15.2407,-24.2274)">
                <path d="M471.156,214.914L463.801,214.914L463.801,188.816L471.156,188.816L471.156,214.914ZM450.277,214.914L437.228,214.914L437.228,188.816L444.583,188.816L444.583,196.408L449.802,196.408C453.124,196.408 455.734,197.357 457.632,199.018C459.53,200.679 460.479,202.814 460.479,205.661C460.479,208.271 459.53,210.406 457.869,212.304C456.208,213.965 453.599,214.914 450.277,214.914ZM444.583,201.865L444.583,209.22L448.853,209.22C450.277,209.22 451.463,208.983 452.175,208.271C452.887,207.559 453.361,206.847 453.361,205.661C453.361,204.475 452.887,203.526 452.175,203.051C451.463,202.34 450.277,202.102 448.853,202.102L444.583,202.102L444.583,201.865Z" style="fill:white;fill-rule:nonzero;"/>
            </g>
            <g transform="matrix(1.0483,0,0,1.22195,-15.2407,-24.2274)">
                <path d="M101.266,219.657C107.162,219.657 111.942,214.877 111.942,208.98C111.942,203.084 107.162,198.304 101.266,198.304C95.369,198.304 90.589,203.084 90.589,208.98C90.589,214.877 95.369,219.657 101.266,219.657Z" style="fill:white;fill-opacity:0.4;fill-rule:nonzero;"/>
            </g>
            <g transform="matrix(1.0483,0,0,1.22195,-15.2407,-24.2274)">
                <path d="M136.854,77.302C142.751,77.302 147.531,72.522 147.531,66.625C147.531,60.729 142.751,55.949 136.854,55.949C130.957,55.949 126.177,60.729 126.177,66.625C126.177,72.522 130.957,77.302 136.854,77.302Z" style="fill:white;fill-opacity:0.4;fill-rule:nonzero;"/>
            </g>
            <g transform="matrix(1.0483,0,0,1.22195,-15.2407,-24.2274)">
                <path d="M136.854,112.89C142.751,112.89 147.531,108.11 147.531,102.213C147.531,96.317 142.751,91.537 136.854,91.537C130.957,91.537 126.177,96.317 126.177,102.213C126.177,108.11 130.957,112.89 136.854,112.89Z" style="fill:white;fill-opacity:0.4;fill-rule:nonzero;"/>
            </g>
            <g transform="matrix(1.0483,0,0,1.22195,-15.2407,-24.2274)">
                <path d="M136.854,184.069C142.751,184.069 147.531,179.289 147.531,173.393C147.531,167.496 142.751,162.716 136.854,162.716C130.957,162.716 126.177,167.496 126.177,173.393C126.177,179.289 130.957,184.069 136.854,184.069Z" style="fill:white;fill-opacity:0.4;fill-rule:nonzero;"/>
            </g>
            <g transform="matrix(1.0483,0,0,1.22195,-15.2407,-24.2274)">
                <path d="M136.854,219.657C142.751,219.657 147.531,214.877 147.531,208.98C147.531,203.084 142.751,198.304 136.854,198.304C130.957,198.304 126.177,203.084 126.177,208.98C126.177,214.877 130.957,219.657 136.854,219.657Z" style="fill:white;fill-opacity:0.4;fill-rule:nonzero;"/>
            </g>
            <g transform="matrix(1.0483,0,0,1.22195,-15.2407,-24.2274)">
                <path d="M172.443,77.302C178.34,77.302 183.12,72.522 183.12,66.625C183.12,60.729 178.34,55.949 172.443,55.949C166.547,55.949 161.767,60.729 161.767,66.625C161.767,72.522 166.547,77.302 172.443,77.302Z" style="fill:white;fill-opacity:0.4;fill-rule:nonzero;"/>
            </g>
            <g transform="matrix(1.0483,0,0,1.22195,-15.2407,-24.2274)">
                <path d="M65.677,77.302C71.573,77.302 76.353,72.522 76.353,66.626C76.353,60.729 71.573,55.949 65.677,55.949C59.78,55.949 55,60.729 55,66.626C55,72.522 59.78,77.302 65.677,77.302Z" style="fill:white;fill-rule:nonzero;"/>
            </g>
            <g transform="matrix(1.0483,0,0,1.22195,-15.2407,-24.2274)">
                <path d="M65.677,112.89C71.573,112.89 76.353,108.11 76.353,102.213C76.353,96.317 71.573,91.537 65.677,91.537C59.78,91.537 55,96.317 55,102.213C55,108.11 59.78,112.89 65.677,112.89Z" style="fill:white;fill-rule:nonzero;"/>
            </g>
            <g transform="matrix(1.0483,0,0,1.22195,-15.2407,-24.2274)">
                <path d="M65.677,148.48C71.573,148.48 76.353,143.7 76.353,137.803C76.353,131.907 71.573,127.127 65.677,127.127C59.78,127.127 55,131.907 55,137.803C55,143.7 59.78,148.48 65.677,148.48Z" style="fill:white;fill-rule:nonzero;"/>
            </g>
            <g transform="matrix(1.0483,0,0,1.22195,-15.2407,-24.2274)">
                <path d="M65.677,184.069C71.573,184.069 76.353,179.289 76.353,173.393C76.353,167.496 71.573,162.716 65.677,162.716C59.78,162.716 55,167.496 55,173.393C55,179.289 59.78,184.069 65.677,184.069Z" style="fill:white;fill-rule:nonzero;"/>
            </g>
            <g transform="matrix(1.0483,0,0,1.22195,-15.2407,-24.2274)">
                <path d="M65.677,219.657C71.573,219.657 76.353,214.877 76.353,208.98C76.353,203.084 71.573,198.304 65.677,198.304C59.78,198.304 55,203.084 55,208.98C55,214.877 59.78,219.657 65.677,219.657Z" style="fill:white;fill-rule:nonzero;"/>
            </g>
            <g transform="matrix(1.0483,0,0,1.22195,-15.2407,-24.2274)">
                <path d="M101.266,77.302C107.163,77.302 111.943,72.522 111.943,66.625C111.943,60.729 107.163,55.949 101.266,55.949C95.37,55.949 90.589,60.729 90.589,66.625C90.589,72.522 95.37,77.302 101.266,77.302Z" style="fill:white;fill-rule:nonzero;"/>
            </g>
            <g transform="matrix(1.0483,0,0,1.22195,-15.2407,-24.2274)">
                <path d="M101.266,112.89C107.163,112.89 111.943,108.11 111.943,102.213C111.943,96.317 107.163,91.537 101.266,91.537C95.37,91.537 90.589,96.317 90.589,102.213C90.589,108.11 95.37,112.89 101.266,112.89Z" style="fill:white;fill-rule:nonzero;"/>
            </g>
            <g transform="matrix(1.0483,0,0,1.22195,-15.2407,-24.2274)">
                <path d="M101.266,148.48C107.163,148.48 111.943,143.7 111.943,137.803C111.943,131.907 107.163,127.127 101.266,127.127C95.37,127.127 90.589,131.907 90.589,137.803C90.589,143.7 95.37,148.48 101.266,148.48Z" style="fill:white;fill-rule:nonzero;"/>
            </g>
            <g transform="matrix(1.0483,0,0,1.22195,-15.2407,-24.2274)">
                <path d="M101.266,184.069C107.163,184.069 111.943,179.289 111.943,173.393C111.943,167.496 107.163,162.716 101.266,162.716C95.37,162.716 90.589,167.496 90.589,173.393C90.589,179.289 95.37,184.069 101.266,184.069Z" style="fill:white;fill-rule:nonzero;"/>
            </g>
            <g transform="matrix(1.0483,0,0,1.22195,-15.2407,-24.2274)">
                <path d="M136.854,148.48C142.751,148.48 147.531,143.7 147.531,137.803C147.531,131.907 142.751,127.127 136.854,127.127C130.958,127.127 126.178,131.907 126.178,137.803C126.178,143.7 130.958,148.48 136.854,148.48Z" style="fill:white;fill-rule:nonzero;"/>
            </g>
            <g transform="matrix(1.0483,0,0,1.22195,-15.2407,-24.2274)">
                <path d="M172.444,112.89C178.34,112.89 183.121,108.11 183.121,102.213C183.121,96.317 178.34,91.537 172.444,91.537C166.547,91.537 161.767,96.317 161.767,102.213C161.767,108.11 166.547,112.89 172.444,112.89Z" style="fill:white;fill-rule:nonzero;"/>
            </g>
            <g transform="matrix(1.0483,0,0,1.22195,-15.2407,-24.2274)">
                <path d="M172.444,148.48C178.34,148.48 183.121,143.7 183.121,137.803C183.121,131.907 178.34,127.127 172.444,127.127C166.547,127.127 161.767,131.907 161.767,137.803C161.767,143.7 166.547,148.48 172.444,148.48Z" style="fill:white;fill-rule:nonzero;"/>
            </g>
            <g transform="matrix(1.0483,0,0,1.22195,-15.2407,-24.2274)">
                <path d="M172.444,184.069C178.34,184.069 183.121,179.289 183.121,173.393C183.121,167.496 178.34,162.716 172.444,162.716C166.547,162.716 161.767,167.496 161.767,173.393C161.767,179.289 166.547,184.069 172.444,184.069Z" style="fill:white;fill-rule:nonzero;"/>
            </g>
            <g transform="matrix(1.0483,0,0,1.22195,-15.2407,-24.2274)">
                <path d="M172.444,219.657C178.34,219.657 183.121,214.877 183.121,208.98C183.121,203.084 178.34,198.304 172.444,198.304C166.547,198.304 161.767,203.084 161.767,208.98C161.767,214.877 166.547,219.657 172.444,219.657Z" style="fill:white;fill-rule:nonzero;"/>
            </g>
            <g transform="matrix(1.0483,0,0,1.22195,-15.2407,-24.2274)">
                <path d="M208.033,77.302C213.93,77.302 218.71,72.522 218.71,66.625C218.71,60.729 213.93,55.949 208.033,55.949C202.137,55.949 197.356,60.729 197.356,66.625C197.356,72.522 202.137,77.302 208.033,77.302Z" style="fill:white;fill-rule:nonzero;"/>
            </g>
            <g transform="matrix(1.0483,0,0,1.22195,-15.2407,-24.2274)">
                <path d="M208.033,112.89C213.93,112.89 218.71,108.11 218.71,102.213C218.71,96.317 213.93,91.537 208.033,91.537C202.137,91.537 197.356,96.317 197.356,102.213C197.356,108.11 202.137,112.89 208.033,112.89Z" style="fill:white;fill-rule:nonzero;"/>
            </g>
            <g transform="matrix(1.0483,0,0,1.22195,-15.2407,-24.2274)">
                <path d="M208.033,148.48C213.93,148.48 218.71,143.7 218.71,137.803C218.71,131.907 213.93,127.127 208.033,127.127C202.137,127.127 197.356,131.907 197.356,137.803C197.356,143.7 202.137,148.48 208.033,148.48Z" style="fill:white;fill-rule:nonzero;"/>
            </g>
            <g transform="matrix(1.0483,0,0,1.22195,-15.2407,-24.2274)">
                <path d="M208.033,184.069C213.93,184.069 218.71,179.289 218.71,173.393C218.71,167.496 213.93,162.716 208.033,162.716C202.137,162.716 197.356,167.496 197.356,173.393C197.356,179.289 202.137,184.069 208.033,184.069Z" style="fill:white;fill-rule:nonzero;"/>
            </g>
            <g transform="matrix(1.0483,0,0,1.22195,-15.2407,-24.2274)">
                <path d="M208.033,219.657C213.93,219.657 218.71,214.877 218.71,208.98C218.71,203.084 213.93,198.304 208.033,198.304C202.137,198.304 197.356,203.084 197.356,208.98C197.356,214.877 202.137,219.657 208.033,219.657Z" style="fill:white;fill-rule:nonzero;"/>
            </g>
        </g>
    </g>
</svg>
