<?xml version="1.0" encoding="UTF-8" standalone="no"?>
<!DOCTYPE svg PUBLIC "-//W3C//DTD SVG 1.1//EN" "http://www.w3.org/Graphics/SVG/1.1/DTD/svg11.dtd">
<svg width="100%" height="100%" viewBox="0 0 650 166" version="1.1" xmlns="http://www.w3.org/2000/svg" xmlns:xlink="http://www.w3.org/1999/xlink" xml:space="preserve" xmlns:serif="http://www.serif.com/" style="fill-rule:evenodd;clip-rule:evenodd;stroke-linejoin:round;stroke-miterlimit:2;">
    <g transform="matrix(1.37351,0,0,1.37351,-82.6584,-68.74)">
        <g id="path3801_1_">
            <g>
                <g transform="matrix(0.575215,0,0,0.575215,8.99999,2.30702)">
                    <path d="M355.474,213.22C350.415,213.249 346.394,211.168 344.299,206.77C341.578,200.772 342.52,191.43 348.611,187.814C354.746,184.082 365.43,186.195 366.349,194.509L361.812,194.509C360.807,190.045 354.096,189.375 350.937,191.733C348.517,193.54 347.697,196.563 347.674,199.533C347.694,202.569 348.563,205.743 351.049,207.558C354.209,209.897 360.876,209.262 362,204.82L366.762,204.82C365.943,210.32 360.81,213.327 355.474,213.22Z" style="fill:#142814;fill-rule:nonzero;"/>
                </g>
                <g transform="matrix(0.575215,0,0,0.575215,8.99999,2.30702)">
                    <path d="M376.497,213.183C373.087,213.256 369.512,211.011 369.672,207.258C369.51,203.701 372.176,201.769 375.41,201.389C377.384,201.038 380.66,201.169 382.723,201.145C382.709,199.562 382.32,198.198 381.016,197.358C379.31,196.361 375.778,196.547 374.997,198.745L370.31,198.745C371.439,191.664 383.84,190.628 386.247,197.207C387.688,200.072 386.938,209.428 387.11,212.92L383.06,212.92L382.947,210.521C381.417,212.541 378.891,213.184 376.497,213.183ZM377.548,209.47C380.541,209.569 383.088,207.447 382.76,204.37C380.739,204.455 377.625,204.124 375.73,204.725C374.201,205.107 373.768,207.109 374.661,208.289C375.311,209.134 376.464,209.468 377.549,209.47L377.548,209.47Z" style="fill:#142814;fill-rule:nonzero;"/>
                </g>
                <g transform="matrix(0.575215,0,0,0.575215,8.99999,2.30702)">
                    <path d="M391.691,212.92L391.691,193.158L396.266,193.158L396.266,201.108L404.516,201.108L404.516,193.158L409.091,193.158L409.091,212.92L404.516,212.92L404.516,205.194L396.266,205.194L396.266,212.92L391.691,212.92Z" style="fill:#142814;fill-rule:nonzero;"/>
                </g>
                <g transform="matrix(0.575215,0,0,0.575215,8.99999,2.30702)">
                    <path d="M413.748,212.92L413.748,193.158L418.323,193.158L418.323,201.07L421.474,201.07L426.611,193.158L431.786,193.158L425.448,202.496L432.011,212.921L426.722,212.921L421.81,205.121L418.322,205.121L418.322,212.921L413.747,212.921L413.748,212.92Z" style="fill:#142814;fill-rule:nonzero;"/>
                </g>
                <g transform="matrix(0.575215,0,0,0.575215,8.99999,2.30702)">
                    <path d="M440.19,212.92L440.19,197.207L433.665,197.207L433.665,193.158L451.328,193.158L451.328,197.207L444.765,197.207L444.765,212.92L440.19,212.92Z" style="fill:#142814;fill-rule:nonzero;"/>
                </g>
                <g transform="matrix(0.575215,0,0,0.575215,8.99999,2.30702)">
                    <rect x="452.434" y="200.095" width="12.375" height="4.126" style="fill:#142814;fill-rule:nonzero;"/>
                </g>
                <g transform="matrix(0.575215,0,0,0.575215,8.99999,2.30702)">
                    <path d="M469.795,212.92L469.795,186.407L491.471,186.407L491.471,212.92L486.783,212.92L486.783,190.645L474.484,190.645L474.484,212.92L469.795,212.92Z" style="fill:#142814;fill-rule:nonzero;"/>
                </g>
                <g transform="matrix(0.575215,0,0,0.575215,8.99999,2.30702)">
                    <path d="M505.259,213.183C495.084,213.961 492.319,198.942 500.104,194.169C507.187,189.785 516.089,196.357 514.11,204.52L500.234,204.52C500.056,209.237 507.353,211.217 509.46,207.071L514.035,207.071C513.208,211.23 509.195,213.229 505.26,213.184L505.259,213.183ZM500.309,201.108L509.834,201.108C509.998,195.171 500.363,195.376 500.309,201.108Z" style="fill:#142814;fill-rule:nonzero;"/>
                </g>
                <g transform="matrix(0.575215,0,0,0.575215,8.99999,2.30702)">
                    <path d="M522.72,212.92L522.72,197.207L516.195,197.207L516.195,193.158L533.858,193.158L533.858,197.207L527.295,197.207L527.295,212.92L522.72,212.92Z" style="fill:#142814;fill-rule:nonzero;"/>
                </g>
                <g transform="matrix(0.575215,0,0,0.575215,8.99999,2.30702)">
                    <path d="M545.318,213.183C536.85,213.479 533.752,204.5 536.862,197.789C538.882,193.316 544.843,191.722 549.219,193.627C552.741,195.18 554.433,198.971 554.319,202.72C554.319,203.349 554.264,203.886 554.169,204.521L540.293,204.521C540.442,206.198 541.166,207.787 542.638,208.646C544.586,209.759 548.603,209.557 549.519,207.072L554.094,207.072C553.267,211.231 549.253,213.23 545.319,213.185L545.318,213.183ZM540.368,201.108L549.893,201.108C549.907,195.107 540.583,195.32 540.368,201.108Z" style="fill:#142814;fill-rule:nonzero;"/>
                </g>
                <g transform="matrix(0.575215,0,0,0.575215,8.99999,2.30702)">
                    <path d="M558.153,220.195L558.153,193.158L562.429,193.158L562.654,195.857C565.041,192.423 570.664,192.002 573.829,194.207C576.63,196.187 577.598,199.575 577.616,203.058C577.599,206.559 576.602,209.914 573.735,211.851C570.797,213.844 565.258,213.714 562.728,210.82L562.728,220.195L558.153,220.195ZM568.054,209.057C572.839,209.312 573.918,203.633 572.609,200.094C571.296,195.893 564.785,196.006 563.29,200.056C561.661,203.728 563.279,209.327 568.054,209.056L568.054,209.057Z" style="fill:#142814;fill-rule:nonzero;"/>
                </g>
                <g transform="matrix(0.575215,0,0,0.575215,8.99999,2.30702)">
                    <path d="M590.415,213.183C583.911,213.423 580.53,207.474 580.703,201.594C580.664,195.608 581.127,188.641 588.014,187.119C591.477,186.085 595.475,185.988 598.965,185.282L598.965,189.819C596.477,190.481 593.838,190.413 591.277,190.757C589.296,190.991 587.328,191.382 586.14,193.082C585.275,194.281 584.917,196.012 584.903,197.507C587.253,194.01 592.885,193.518 596.153,195.538C600.304,198.053 600.919,204.476 598.815,208.513C597.141,211.641 594.083,213.205 590.415,213.182L590.415,213.183ZM590.451,209.133C596.956,209.333 597.153,198.288 590.526,198.52C583.92,198.362 583.825,209.259 590.451,209.133Z" style="fill:#142814;fill-rule:nonzero;"/>
                </g>
                <g transform="matrix(0.575215,0,0,0.575215,8.99999,2.30702)">
                    <path d="M603.54,221.771L603.54,217.196C606.385,217.292 608.182,216.242 609.315,213.708L600.915,193.158L606.24,193.158L611.94,208.495L616.439,193.158L621.465,193.158L616.14,209.695C614.021,216.249 611.686,222.389 603.54,221.771Z" style="fill:#142814;fill-rule:nonzero;"/>
                </g>
                <g transform="matrix(0.575215,0,0,0.575215,8.99999,2.30702)">
                    <path d="M624.11,220.195L624.11,193.158L628.386,193.158L628.611,195.857C630.998,192.423 636.621,192.002 639.786,194.207C642.587,196.187 643.555,199.575 643.573,203.058C643.556,206.559 642.559,209.914 639.692,211.851C636.754,213.844 631.215,213.714 628.685,210.82L628.685,220.195L624.11,220.195ZM634.012,209.057C638.797,209.312 639.876,203.633 638.567,200.094C637.254,195.893 630.743,196.006 629.248,200.056C627.619,203.728 629.237,209.327 634.012,209.056L634.012,209.057Z" style="fill:#142814;fill-rule:nonzero;"/>
                </g>
                <g transform="matrix(0.575215,0,0,0.575215,8.99999,2.30702)">
                    <path d="M647.383,212.92L647.383,193.158L661.409,193.158L661.409,197.207L651.958,197.207L651.958,212.92L647.383,212.92Z" style="fill:#142814;fill-rule:nonzero;"/>
                </g>
                <g transform="matrix(0.575215,0,0,0.575215,8.99999,2.30702)">
                    <path d="M672.869,213.183C669.079,213.2 666.097,211.68 664.507,208.383C662.411,203.848 663.18,196.845 667.844,194.17C672.775,191.276 680.96,193.039 681.495,199.72L676.994,199.72C676.285,196.714 672.069,196.274 670.038,197.901C668.513,199.135 667.971,201.182 667.958,203.094C667.967,205.036 668.539,207.077 670.114,208.233C672.128,209.7 676.439,209.328 677.032,206.357L681.683,206.357C681.301,210.879 677.07,213.256 672.87,213.183L672.869,213.183Z" style="fill:#142814;fill-rule:nonzero;"/>
                </g>
                <g transform="matrix(0.575215,0,0,0.575215,8.99999,2.30702)">
                    <path d="M685.258,212.92L685.258,193.158L689.833,193.158L689.833,201.07L692.984,201.07L698.121,193.158L703.296,193.158L696.958,202.496L703.521,212.921L698.232,212.921L693.32,205.121L689.832,205.121L689.832,212.921L685.257,212.921L685.258,212.92Z" style="fill:#142814;fill-rule:nonzero;"/>
                </g>
                <g transform="matrix(0.575215,0,0,0.575215,8.99999,2.30702)">
                    <path d="M706.224,212.92L706.224,193.158L710.799,193.158L710.799,206.02C711.226,205.185 719.712,194.244 720.475,193.158L724.524,193.158L724.524,212.92L719.987,212.92L719.987,200.208C719.468,201.124 711.212,211.778 710.388,212.92L706.224,212.92Z" style="fill:#142814;fill-rule:nonzero;"/>
                </g>
                <g transform="matrix(0.575215,0,0,0.575215,8.99999,2.30702)">
                    <path d="M729.211,212.92L729.211,193.158L733.786,193.158L733.786,206.02C734.05,205.525 734.63,204.74 734.986,204.333L743.462,193.158L747.511,193.158L747.511,212.92L742.974,212.92L742.974,200.208C742.602,200.819 742.163,201.397 741.737,201.933L733.375,212.92L729.211,212.92ZM738.662,191.132C734.68,191.13 731.834,189.362 731.799,185.245L735.698,185.245C735.73,187.136 736.942,187.815 738.699,187.832C740.455,187.815 741.667,187.135 741.699,185.245L745.6,185.245C745.662,189.192 742.407,191.275 738.662,191.132Z" style="fill:#142814;fill-rule:nonzero;"/>
                </g>
                <g transform="matrix(0.575215,0,0,0.575215,8.99999,2.30702)">
                    <path d="M345.387,248.362L345.387,228.6L362.825,228.6L362.825,248.362L358.25,248.362L358.25,232.649L349.962,232.649L349.962,248.362L345.387,248.362Z" style="fill:#142814;fill-rule:nonzero;"/>
                </g>
                <g transform="matrix(0.575215,0,0,0.575215,8.99999,2.30702)">
                    <path d="M376.449,248.625C367.89,248.905 364.607,239.943 367.843,233.117C370.936,226.693 381.928,226.629 384.961,233.155C388.103,239.961 385.032,248.897 376.449,248.625ZM376.411,244.461C381.16,244.715 382.522,239.186 381.099,235.574C379.819,231.454 372.978,231.475 371.686,235.574C370.254,239.224 371.624,244.739 376.411,244.461Z" style="fill:#142814;fill-rule:nonzero;"/>
                </g>
                <g transform="matrix(0.575215,0,0,0.575215,8.99999,2.30702)">
                    <path d="M388.021,248.4L388.021,244.274C391.038,244.197 391.292,240.496 391.471,238.125C391.657,235.043 391.772,231.599 391.808,228.6L406.659,228.6L406.659,248.362L402.084,248.362L402.084,232.649L396.046,232.649C395.937,235.27 395.917,238.167 395.559,240.787C395.333,242.696 395.016,244.865 393.834,246.449C392.292,248.277 390.594,248.324 388.021,248.399L388.021,248.4Z" style="fill:#142814;fill-rule:nonzero;"/>
                </g>
                <g transform="matrix(0.575215,0,0,0.575215,8.99999,2.30702)">
                    <path d="M411.346,248.362L411.346,228.6L415.921,228.6L415.921,241.462C416.348,240.627 424.834,229.686 425.597,228.6L429.646,228.6L429.646,248.362L425.109,248.362L425.109,235.65C424.59,236.566 416.334,247.22 415.51,248.362L411.346,248.362Z" style="fill:#142814;fill-rule:nonzero;"/>
                </g>
                <g transform="matrix(0.575215,0,0,0.575215,8.99999,2.30702)">
                    <path d="M438.931,248.362L438.931,232.649L432.406,232.649L432.406,228.6L450.069,228.6L450.069,232.649L443.506,232.649L443.506,248.362L438.931,248.362Z" style="fill:#142814;fill-rule:nonzero;"/>
                </g>
                <g transform="matrix(0.575215,0,0,0.575215,8.99999,2.30702)">
                    <path d="M461.529,248.625C453.061,248.921 449.963,239.942 453.073,233.231C455.093,228.758 461.054,227.164 465.43,229.069C468.952,230.622 470.644,234.413 470.53,238.162C470.53,238.791 470.475,239.328 470.38,239.963L456.504,239.963C456.653,241.64 457.377,243.229 458.849,244.088C460.797,245.201 464.814,244.999 465.73,242.514L470.305,242.514C469.478,246.673 465.464,248.672 461.53,248.627L461.529,248.625ZM456.579,236.549L466.104,236.549C466.118,230.548 456.794,230.761 456.579,236.549Z" style="fill:#142814;fill-rule:nonzero;"/>
                </g>
                <g transform="matrix(0.575215,0,0,0.575215,8.99999,2.30702)">
                    <path d="M471.585,248.362L478.561,238.275L471.96,228.6L477.286,228.6L481.56,235.237L485.722,228.6L490.935,228.6L484.335,238.387L491.421,248.363L486.06,248.363L481.372,241.538L476.685,248.363L471.584,248.363L471.585,248.362Z" style="fill:#142814;fill-rule:nonzero;"/>
                </g>
                <g transform="matrix(0.575215,0,0,0.575215,8.99999,2.30702)">
                    <path d="M494.146,248.362L494.146,228.6L498.721,228.6L498.721,236.55L506.971,236.55L506.971,228.6L511.546,228.6L511.546,248.362L506.971,248.362L506.971,240.636L498.721,240.636L498.721,248.362L494.146,248.362Z" style="fill:#142814;fill-rule:nonzero;"/>
                </g>
                <g transform="matrix(0.575215,0,0,0.575215,8.99999,2.30702)">
                    <path d="M516.213,248.362L516.213,228.6L520.788,228.6L520.788,241.462C521.052,240.967 521.632,240.182 521.988,239.775L530.464,228.6L534.513,228.6L534.513,248.362L529.976,248.362L529.976,235.65C529.604,236.261 529.165,236.839 528.739,237.375L520.377,248.362L516.213,248.362Z" style="fill:#142814;fill-rule:nonzero;"/>
                </g>
                <g transform="matrix(0.575215,0,0,0.575215,8.99999,2.30702)">
                    <path d="M550.207,248.362L550.207,241.388C543.454,242.445 537.904,241.601 538.095,233.55L538.095,228.6L542.67,228.6C542.795,235.691 541.312,238.673 550.207,237.3L550.207,228.6L554.782,228.6L554.782,248.362L550.207,248.362Z" style="fill:#142814;fill-rule:nonzero;"/>
                </g>
                <g transform="matrix(0.575215,0,0,0.575215,8.99999,2.30702)">
                    <path d="M568.237,248.625C559.769,248.921 556.671,239.942 559.781,233.231C561.801,228.758 567.762,227.164 572.138,229.069C575.66,230.622 577.352,234.413 577.238,238.162C577.238,238.791 577.183,239.328 577.088,239.963L563.212,239.963C563.361,241.64 564.085,243.229 565.557,244.088C567.505,245.201 571.522,244.999 572.438,242.514L577.013,242.514C576.186,246.673 572.172,248.672 568.238,248.627L568.237,248.625ZM563.287,236.549L572.812,236.549C572.826,230.548 563.502,230.761 563.287,236.549Z" style="fill:#142814;fill-rule:nonzero;"/>
                </g>
                <g transform="matrix(0.575215,0,0,0.575215,8.99999,2.30702)">
                    <path d="M589.635,248.625C585.845,248.642 582.863,247.122 581.273,243.825C579.177,239.29 579.946,232.287 584.61,229.612C589.541,226.718 597.726,228.481 598.261,235.162L593.76,235.162C593.051,232.156 588.835,231.716 586.804,233.343C585.279,234.577 584.737,236.624 584.724,238.536C584.733,240.478 585.305,242.519 586.88,243.675C588.894,245.142 593.205,244.77 593.798,241.799L598.449,241.799C598.067,246.321 593.836,248.698 589.636,248.625L589.635,248.625Z" style="fill:#142814;fill-rule:nonzero;"/>
                </g>
                <g transform="matrix(0.575215,0,0,0.575215,8.99999,2.30702)">
                    <path d="M602.024,248.362L602.024,228.6L606.599,228.6L606.599,236.512L609.75,236.512L614.887,228.6L620.062,228.6L613.724,237.938L620.287,248.363L614.998,248.363L610.086,240.563L606.598,240.563L606.598,248.363L602.023,248.363L602.024,248.362Z" style="fill:#142814;fill-rule:nonzero;"/>
                </g>
                <g transform="matrix(0.575215,0,0,0.575215,8.99999,2.30702)">
                    <path d="M622.99,248.362L622.99,228.6L627.565,228.6L627.565,241.462C627.829,240.967 628.409,240.182 628.765,239.775L637.241,228.6L641.29,228.6L641.29,248.362L636.753,248.362L636.753,235.65C636.381,236.261 635.942,236.839 635.516,237.375L627.154,248.362L622.99,248.362Z" style="fill:#142814;fill-rule:nonzero;"/>
                </g>
                <g transform="matrix(0.575215,0,0,0.575215,8.99999,2.30702)">
                    <path d="M645.977,248.362L645.977,228.6L650.552,228.6L650.552,241.462C650.816,240.967 651.396,240.182 651.752,239.775L660.228,228.6L664.277,228.6L664.277,248.362L659.74,248.362L659.74,235.65C659.368,236.261 658.929,236.839 658.503,237.375L650.141,248.362L645.977,248.362ZM655.428,226.574C651.446,226.572 648.6,224.804 648.565,220.687L652.464,220.687C652.496,222.578 653.708,223.257 655.465,223.274C657.221,223.257 658.433,222.577 658.465,220.687L662.366,220.687C662.428,224.634 659.173,226.717 655.428,226.574Z" style="fill:#142814;fill-rule:nonzero;"/>
                </g>
                <g transform="matrix(0.575215,0,0,0.575215,8.99999,2.30702)">
                    <path d="M679.953,257.212L679.953,252.637C682.798,252.733 684.595,251.683 685.728,249.149L677.328,228.599L682.653,228.599L688.353,243.936L692.852,228.599L697.878,228.599L692.553,245.136C690.434,251.69 688.099,257.83 679.953,257.212Z" style="fill:#142814;fill-rule:nonzero;"/>
                </g>
                <g transform="matrix(0.575215,0,0,0.575215,8.99999,2.30702)">
                    <path d="M700.525,248.362L700.525,228.6L705.1,228.6L705.1,236.55L713.35,236.55L713.35,228.6L717.925,228.6L717.925,248.362L713.35,248.362L713.35,240.636L705.1,240.636L705.1,248.362L700.525,248.362Z" style="fill:#142814;fill-rule:nonzero;"/>
                </g>
                <g transform="matrix(0.575215,0,0,0.575215,8.99999,2.30702)">
                    <path d="M722.593,248.362L722.593,228.6L727.168,228.6L727.168,241.462C727.595,240.627 736.081,229.686 736.844,228.6L740.893,228.6L740.893,248.362L736.356,248.362L736.356,235.65C735.837,236.566 727.581,247.22 726.757,248.362L722.593,248.362Z" style="fill:#142814;fill-rule:nonzero;"/>
                </g>
                <g transform="matrix(0.575215,0,0,0.575215,8.99999,2.30702)">
                    <path d="M745.58,248.362L745.58,228.6L754.543,228.6C756.163,228.62 758.023,228.717 759.457,229.48C762.565,230.894 762.661,236.184 759.493,237.712C763.715,238.689 763.687,244.974 760.412,246.974C758.988,247.939 757.156,248.359 755.444,248.362L745.58,248.362ZM750.193,236.699C751.853,236.633 754.436,236.923 756.006,236.306C757.439,235.895 758,234.027 756.924,233.061C756.176,232.473 755.022,232.444 754.094,232.424L750.193,232.424L750.193,236.699ZM750.193,244.387L754.881,244.387C756.409,244.397 758.293,244.027 758.256,242.174C758.333,240.008 755.878,239.915 754.281,239.924L750.193,239.924L750.193,244.387Z" style="fill:#142814;fill-rule:nonzero;"/>
                </g>
                <g transform="matrix(0.575215,0,0,0.575215,8.99999,2.30702)">
                    <path d="M775.25,248.625C766.782,248.921 763.684,239.942 766.794,233.231C768.814,228.758 774.775,227.164 779.151,229.069C782.673,230.622 784.365,234.413 784.251,238.162C784.251,238.791 784.196,239.328 784.101,239.963L770.225,239.963C770.374,241.64 771.098,243.229 772.57,244.088C774.518,245.201 778.535,244.999 779.451,242.514L784.026,242.514C783.199,246.673 779.185,248.672 775.251,248.627L775.25,248.625ZM770.3,236.549L779.825,236.549C779.839,230.548 770.515,230.761 770.3,236.549Z" style="fill:#142814;fill-rule:nonzero;"/>
                </g>
                <g transform="matrix(0.575215,0,0,0.575215,8.99999,2.30702)">
                    <path d="M788.086,255.637L788.086,228.6L792.362,228.6L792.587,231.299C794.974,227.865 800.597,227.444 803.762,229.649C806.563,231.629 807.531,235.017 807.549,238.5C807.532,242.001 806.535,245.356 803.668,247.293C800.73,249.286 795.191,249.156 792.661,246.262L792.661,255.637L788.086,255.637ZM797.987,244.499C802.772,244.754 803.851,239.075 802.542,235.536C801.229,231.335 794.718,231.448 793.223,235.498C791.594,239.17 793.212,244.769 797.987,244.498L797.987,244.499Z" style="fill:#142814;fill-rule:nonzero;"/>
                </g>
                <g transform="matrix(0.575215,0,0,0.575215,8.99999,2.30702)">
                    <path d="M819.853,248.625C816.063,248.642 813.081,247.122 811.491,243.825C809.395,239.29 810.164,232.287 814.828,229.612C819.759,226.718 827.944,228.481 828.479,235.162L823.978,235.162C823.269,232.156 819.053,231.716 817.022,233.343C815.497,234.577 814.955,236.624 814.942,238.536C814.951,240.478 815.523,242.519 817.098,243.675C819.112,245.142 823.423,244.77 824.016,241.799L828.667,241.799C828.285,246.321 824.054,248.698 819.854,248.625L819.853,248.625Z" style="fill:#142814;fill-rule:nonzero;"/>
                </g>
                <g transform="matrix(0.575215,0,0,0.575215,8.99999,2.30702)">
                    <path d="M832.242,248.362L832.242,228.6L836.817,228.6L836.817,241.462C837.244,240.627 845.73,229.686 846.493,228.6L850.542,228.6L850.542,248.362L846.005,248.362L846.005,235.65C845.486,236.566 837.23,247.22 836.406,248.362L832.242,248.362Z" style="fill:#142814;fill-rule:nonzero;"/>
                </g>
                <g transform="matrix(0.575215,0,0,0.575215,8.99999,2.30702)">
                    <path d="M859.827,248.362L859.827,232.649L853.302,232.649L853.302,228.6L870.965,228.6L870.965,232.649L864.402,232.649L864.402,248.362L859.827,248.362Z" style="fill:#142814;fill-rule:nonzero;"/>
                </g>
                <g transform="matrix(0.575215,0,0,0.575215,8.99999,2.30702)">
                    <path d="M882.425,248.625C873.957,248.921 870.859,239.942 873.969,233.231C875.989,228.758 881.95,227.164 886.326,229.069C889.848,230.622 891.54,234.413 891.426,238.162C891.426,238.791 891.371,239.328 891.276,239.963L877.4,239.963C877.549,241.64 878.273,243.229 879.745,244.088C881.693,245.201 885.71,244.999 886.626,242.514L891.201,242.514C890.374,246.673 886.36,248.672 882.426,248.627L882.425,248.625ZM877.475,236.549L887,236.549C887.014,230.548 877.69,230.761 877.475,236.549Z" style="fill:#142814;fill-rule:nonzero;"/>
                </g>
                <g transform="matrix(0.575215,0,0,0.575215,8.99999,2.30702)">
                    <path d="M899.885,248.362L899.885,232.649L893.36,232.649L893.36,228.6L911.023,228.6L911.023,232.649L904.46,232.649L904.46,248.362L899.885,248.362Z" style="fill:#142814;fill-rule:nonzero;"/>
                </g>
                <g transform="matrix(0.575215,0,0,0.575215,8.99999,2.30702)">
                    <path d="M345.387,284.855L345.387,258.342L367.063,258.342L367.063,284.855L362.375,284.855L362.375,262.58L350.076,262.58L350.076,284.855L345.387,284.855Z" style="fill:#142814;fill-rule:nonzero;"/>
                </g>
                <g transform="matrix(0.575215,0,0,0.575215,8.99999,2.30702)">
                    <path d="M380.852,285.118C372.384,285.414 369.286,276.435 372.396,269.724C374.416,265.251 380.377,263.657 384.753,265.562C388.275,267.115 389.967,270.906 389.853,274.655C389.853,275.284 389.798,275.821 389.703,276.456L375.827,276.456C375.976,278.133 376.7,279.722 378.172,280.581C380.12,281.694 384.137,281.492 385.053,279.007L389.628,279.007C388.801,283.166 384.787,285.165 380.853,285.12L380.852,285.118ZM375.902,273.043L385.427,273.043C385.441,267.042 376.117,267.255 375.902,273.043Z" style="fill:#142814;fill-rule:nonzero;"/>
                </g>
                <g transform="matrix(0.575215,0,0,0.575215,8.99999,2.30702)">
                    <path d="M398.312,284.855L398.312,269.142L391.787,269.142L391.787,265.093L409.45,265.093L409.45,269.142L402.887,269.142L402.887,284.855L398.312,284.855Z" style="fill:#142814;fill-rule:nonzero;"/>
                </g>
                <g transform="matrix(0.575215,0,0,0.575215,8.99999,2.30702)">
                    <path d="M412.209,292.13L412.209,265.093L416.485,265.093L416.71,267.792C419.097,264.358 424.72,263.937 427.885,266.142C430.686,268.122 431.654,271.51 431.672,274.993C431.655,278.494 430.658,281.849 427.791,283.786C424.853,285.779 419.314,285.649 416.784,282.755L416.784,292.13L412.209,292.13ZM422.111,280.992C426.896,281.247 427.975,275.568 426.666,272.029C425.353,267.828 418.842,267.941 417.347,271.991C415.718,275.663 417.336,281.262 422.111,280.991L422.111,280.992Z" style="fill:#142814;fill-rule:nonzero;"/>
                </g>
                <g transform="matrix(0.575215,0,0,0.575215,8.99999,2.30702)">
                    <path d="M441.294,285.118C437.884,285.191 434.309,282.946 434.469,279.193C434.307,275.636 436.973,273.704 440.207,273.324C442.181,272.973 445.457,273.104 447.52,273.08C447.506,271.497 447.117,270.133 445.813,269.293C444.107,268.296 440.575,268.482 439.794,270.68L435.107,270.68C436.236,263.599 448.637,262.563 451.044,269.142C452.485,272.007 451.735,281.363 451.907,284.855L447.857,284.855L447.744,282.456C446.214,284.476 443.688,285.119 441.294,285.118ZM442.344,281.405C445.337,281.504 447.884,279.382 447.556,276.305C445.535,276.39 442.421,276.059 440.526,276.66C438.997,277.042 438.564,279.044 439.457,280.224C440.107,281.069 441.26,281.403 442.345,281.405L442.344,281.405Z" style="fill:#142814;fill-rule:nonzero;"/>
                </g>
                <g transform="matrix(0.575215,0,0,0.575215,8.99999,2.30702)">
                    <path d="M467.395,284.855L467.395,258.342L478.27,258.342C480.457,258.369 482.638,258.586 484.363,259.766C487.861,262.147 487.628,268.861 483.519,270.641C489.154,271.8 489.471,280.697 484.851,283.261C482.69,284.551 480.011,284.829 477.406,284.855L467.394,284.855L467.395,284.855ZM472.082,269.443C473.573,269.377 477.769,269.618 479.132,269.218C480.28,268.937 481.245,268.41 481.794,267.399C482.345,266.465 482.299,264.491 481.588,263.761C480.665,262.742 479.153,262.653 477.743,262.618L472.081,262.618L472.081,269.443L472.082,269.443ZM472.082,280.579L477.67,280.579C480.118,280.608 483.488,280.034 483.332,276.905C483.49,274.162 480.773,273.304 478.494,273.379L472.082,273.379L472.082,280.579Z" style="fill:#142814;fill-rule:nonzero;"/>
                </g>
                <g transform="matrix(0.575215,0,0,0.575215,8.99999,2.30702)">
                    <path d="M500.586,285.118C492.118,285.414 489.02,276.435 492.13,269.724C494.15,265.251 500.111,263.657 504.487,265.562C508.009,267.115 509.701,270.906 509.587,274.655C509.587,275.284 509.532,275.821 509.437,276.456L495.561,276.456C495.71,278.133 496.434,279.722 497.906,280.581C499.854,281.694 503.871,281.492 504.787,279.007L509.362,279.007C508.535,283.166 504.521,285.165 500.587,285.12L500.586,285.118ZM495.636,273.043L505.161,273.043C505.175,267.042 495.851,267.255 495.636,273.043Z" style="fill:#142814;fill-rule:nonzero;"/>
                </g>
                <g transform="matrix(0.575215,0,0,0.575215,8.99999,2.30702)">
                    <path d="M511.727,284.893L511.727,280.767C514.744,280.69 514.998,276.989 515.177,274.618C515.363,271.536 515.478,268.092 515.514,265.093L530.365,265.093L530.365,284.855L525.79,284.855L525.79,269.142L519.752,269.142C519.643,271.763 519.623,274.66 519.265,277.28C519.039,279.189 518.722,281.358 517.54,282.942C515.998,284.77 514.3,284.817 511.727,284.892L511.727,284.893Z" style="fill:#142814;fill-rule:nonzero;"/>
                </g>
                <g transform="matrix(0.575215,0,0,0.575215,8.99999,2.30702)">
                    <path d="M535.051,284.855L535.051,265.093L539.626,265.093L539.626,277.955C539.89,277.46 540.47,276.675 540.826,276.268L549.302,265.093L553.351,265.093L553.351,284.855L548.814,284.855L548.814,272.143C548.442,272.754 548.003,273.332 547.577,273.868L539.215,284.855L535.051,284.855Z" style="fill:#142814;fill-rule:nonzero;"/>
                </g>
                <g transform="matrix(0.575215,0,0,0.575215,8.99999,2.30702)">
                    <path d="M558.038,284.855L558.038,265.093L562.613,265.093L562.613,273.005L565.764,273.005L570.901,265.093L576.076,265.093L569.738,274.431L576.301,284.856L571.012,284.856L566.1,277.056L562.612,277.056L562.612,284.856L558.037,284.856L558.038,284.855Z" style="fill:#142814;fill-rule:nonzero;"/>
                </g>
                <g transform="matrix(0.575215,0,0,0.575215,8.99999,2.30702)">
                    <path d="M587.235,285.118C578.676,285.398 575.393,276.436 578.629,269.61C581.722,263.186 592.714,263.122 595.747,269.648C598.889,276.454 595.818,285.39 587.235,285.118ZM587.198,280.954C591.947,281.208 593.309,275.679 591.886,272.067C590.606,267.947 583.765,267.968 582.473,272.067C581.041,275.717 582.411,281.232 587.198,280.954Z" style="fill:#142814;fill-rule:nonzero;"/>
                </g>
                <g transform="matrix(0.575215,0,0,0.575215,8.99999,2.30702)">
                    <path d="M600.727,284.855L600.727,265.093L614.753,265.093L614.753,269.142L605.302,269.142L605.302,284.855L600.727,284.855Z" style="fill:#142814;fill-rule:nonzero;"/>
                </g>
                <g transform="matrix(0.575215,0,0,0.575215,8.99999,2.30702)">
                    <path d="M626.551,285.118C617.992,285.398 614.709,276.436 617.945,269.61C621.038,263.186 632.03,263.122 635.063,269.648C638.205,276.454 635.134,285.39 626.551,285.118ZM626.513,280.954C631.262,281.208 632.624,275.679 631.201,272.067C629.921,267.947 623.08,267.968 621.788,272.067C620.356,275.717 621.726,281.232 626.513,280.954Z" style="fill:#142814;fill-rule:nonzero;"/>
                </g>
                <g transform="matrix(0.575215,0,0,0.575215,8.99999,2.30702)">
                    <path d="M345.262,162.888L345.262,83.808L414.483,83.641L414.483,162.721L398.51,162.721L398.51,98.386L361.234,98.553L361.234,162.888L345.261,162.888L345.262,162.888Z" style="fill:#142814;fill-rule:nonzero;"/>
                </g>
                <g transform="matrix(0.575215,0,0,0.575215,8.99999,2.30702)">
                    <path d="M498.3,102.178C491.538,89.296 479.096,82.951 464.12,82.996C449.001,82.892 436.323,89.214 429.509,102.245C426.311,108.349 424.731,115.423 424.713,123.468C424.227,146.658 439.843,164.339 463.591,163.866C487.435,164.477 503.314,146.529 502.997,123.309C503.016,115.265 501.441,108.212 498.299,102.178L498.3,102.178ZM480.726,141.706C472.373,150.658 457.397,151.305 448.289,143.08C437.188,134.002 436.758,114.178 447.469,104.59C452.003,100.14 458.572,97.61 465.108,98.008C486.784,99.331 495.326,126.89 480.726,141.706Z" style="fill:#142814;fill-rule:nonzero;"/>
                </g>
                <g transform="matrix(0.575215,0,0,0.575215,8.99999,2.30702)">
                    <path d="M504.934,163.223L504.934,148.254C520.714,148.456 516.623,126.86 517.332,116.646L517.667,83.808L574.856,83.641L574.856,162.721L558.772,162.721L558.772,98.497L532.746,98.664C532.608,108.37 532.522,124.473 532.131,133.68C532.176,150.583 525.799,163.514 504.934,163.223Z" style="fill:#142814;fill-rule:nonzero;"/>
                </g>
                <g transform="matrix(0.575215,0,0,0.575215,8.99999,2.30702)">
                    <path d="M587.571,162.93L587.571,83.85L603.544,83.85L603.544,133.025L641.159,84.025L656.684,83.85L656.684,162.93L640.713,162.93L640.713,111.373L601.199,162.93L587.571,162.93Z" style="fill:#142814;fill-rule:nonzero;"/>
                </g>
                <g transform="matrix(0.575215,0,0,0.575215,8.99999,2.30702)">
                    <path d="M689.924,162.847L689.924,98.623L663.412,98.623L663.412,83.768L732.604,83.768L732.604,98.623L706.009,98.623L706.009,162.847L689.924,162.847Z" style="fill:#142814;fill-rule:nonzero;"/>
                </g>
                <g transform="matrix(0.575215,0,0,0.575215,8.99999,2.30702)">
                    <path d="M739.776,162.847L739.776,83.767L796.741,83.767L796.741,98.622L755.749,98.622L755.749,116.493L793.964,116.493L793.964,130.789L755.749,130.789L755.749,148.103L796.741,148.103L796.741,162.846L739.776,162.846L739.776,162.847Z" style="fill:#142814;fill-rule:nonzero;"/>
                </g>
                <g transform="matrix(0.575215,0,0,0.575215,8.99999,2.30702)">
                    <path d="M801.64,162.679L827.259,123.307L801.853,83.598L821.176,83.598L837.536,109.959L853.657,83.766L872.644,83.766L847.028,123.195L872.644,162.679L853.321,162.679L836.864,134.979L819.845,162.679L801.639,162.679L801.64,162.679Z" style="fill:#142814;fill-rule:nonzero;"/>
                </g>
                <g transform="matrix(0.575215,0,0,0.575215,8.99999,2.30702)">
                    <path d="M88.976,83.385L88.976,293.104L299.115,293.104L299.115,83.385L88.976,83.385ZM248.927,149.538C247.595,149.934 243.535,150.723 243.535,150.723L243.348,231.163L266.702,231.217L266.645,255.768L216.145,255.65L216.387,151.656L173.671,151.557L173.4,211.039C173.389,215.63 172.713,220.153 171.439,224.541C167.683,237.24 158.743,247.932 146.819,253.825C143.022,255.746 138.96,257.067 134.767,257.922C130.241,258.776 125.516,259.032 120.727,258.555L120.785,233.671C130.63,234.758 140.423,229.325 144.502,220.353C145.638,218.16 146.826,215.299 146.786,210.977C146.754,207.559 146.793,150.855 146.793,150.855C136.592,153.11 129.121,161.436 124.409,169.838L102.133,157.179C104.605,152.594 109.049,145.325 112.052,141.872C119.124,133.771 127.992,128.265 135.297,126.383C137.914,125.709 143.449,124.632 148.039,124.632C167.703,124.632 234.814,124.486 234.814,124.486C245.792,124.512 255.653,118.746 260.998,109.244L282.792,121.936C275.907,135.56 263.641,145.578 248.928,149.536L248.927,149.538Z" style="fill:#142814;fill-rule:nonzero;"/>
                </g>
            </g>
        </g>
    </g>
</svg>
