<svg xmlns="http://www.w3.org/2000/svg" width="1200" height="800" viewBox="0 0 1200 800"><defs><linearGradient id="bg" x1="0" y1="0" x2="0" y2="1"><stop offset="0" stop-color="#FFFFFF"/><stop offset="1" stop-color="#EFF7EE"/></linearGradient><linearGradient id="metal" x1="0" y1="0" x2="1" y2="0"><stop offset="0" stop-color="#1E7A2C"/><stop offset="0.5" stop-color="#2EA83C"/><stop offset="1" stop-color="#7FD08A"/></linearGradient><linearGradient id="stress" x1="0" y1="0" x2="0" y2="1"><stop offset="0" stop-color="#DC3C14" stop-opacity="0.0"/><stop offset="0.5" stop-color="#DC3C14" stop-opacity="0.55"/><stop offset="1" stop-color="#F2C200" stop-opacity="0.0"/></linearGradient><radialGradient id="glow" cx="0.5" cy="0.5" r="0.5"><stop offset="0" stop-color="#3C2878" stop-opacity="0.18"/><stop offset="1" stop-color="#3C2878" stop-opacity="0"/></radialGradient><linearGradient id="head" x1="0" y1="0" x2="1" y2="0"><stop offset="0" stop-color="#2A1A56"/><stop offset="1" stop-color="#3C2878"/></linearGradient></defs><rect width="1200" height="800" fill="url(#bg)"/><path d="M-40,800 V120 a55,55 0 0 1 110,0 V800" fill="none" stroke="#78B478" stroke-opacity="0.06" stroke-width="6"/><path d="M80,800 V120 a55,55 0 0 1 110,0 V800" fill="none" stroke="#78B478" stroke-opacity="0.06" stroke-width="6"/><path d="M200,800 V120 a55,55 0 0 1 110,0 V800" fill="none" stroke="#78B478" stroke-opacity="0.06" stroke-width="6"/><path d="M320,800 V120 a55,55 0 0 1 110,0 V800" fill="none" stroke="#78B478" stroke-opacity="0.06" stroke-width="6"/><path d="M440,800 V120 a55,55 0 0 1 110,0 V800" fill="none" stroke="#78B478" stroke-opacity="0.06" stroke-width="6"/><path d="M560,800 V120 a55,55 0 0 1 110,0 V800" fill="none" stroke="#78B478" stroke-opacity="0.06" stroke-width="6"/><path d="M680,800 V120 a55,55 0 0 1 110,0 V800" fill="none" stroke="#78B478" stroke-opacity="0.06" stroke-width="6"/><path d="M800,800 V120 a55,55 0 0 1 110,0 V800" fill="none" stroke="#78B478" stroke-opacity="0.06" stroke-width="6"/><path d="M920,800 V120 a55,55 0 0 1 110,0 V800" fill="none" stroke="#78B478" stroke-opacity="0.06" stroke-width="6"/><path d="M1040,800 V120 a55,55 0 0 1 110,0 V800" fill="none" stroke="#78B478" stroke-opacity="0.06" stroke-width="6"/><path d="M1160,800 V120 a55,55 0 0 1 110,0 V800" fill="none" stroke="#78B478" stroke-opacity="0.06" stroke-width="6"/><text x="44" y="58" font-family="DejaVu Sans, Arial" font-size="30" font-weight="700" fill="#3C2878">Цифровой двойник ТВС</text><text x="46" y="86" font-family="DejaVu Sans, Arial" font-size="15" fill="#142814">ПИШ СПбПУ x ТВЭЛ (Росатом) · платформа CML-Bench · ВВЭР (6-гранная) и ТВС-К (17x17)</text><ellipse cx="360" cy="430" rx="210" ry="300" fill="url(#glow)"/><polygon points="360.0,134.0 325.4,154.0 325.4,194.0 360.0,214.0 394.6,194.0 394.6,154.0" fill="url(#head)" stroke="#142814" stroke-width="1.5"/><rect x="353" y="122" width="14" height="30" rx="5" fill="#3C2878"/><rect x="282" y="200" width="78" height="460" rx="6" fill="url(#metal)"/><rect x="360" y="200" width="78" height="460" rx="6" fill="#FFFFFF" fill-opacity="0.55" stroke="#3C2878" stroke-width="1" stroke-opacity="0.5"/><line x1="287.6" y1="206" x2="287.6" y2="654" stroke="#1E7A2C" stroke-width="2" stroke-opacity="0.55"/><line x1="365.6" y1="206" x2="365.6" y2="654" stroke="#3C2878" stroke-width="1.2" stroke-opacity="0.8"/><line x1="298.7" y1="206" x2="298.7" y2="654" stroke="#1E7A2C" stroke-width="2" stroke-opacity="0.55"/><line x1="376.7" y1="206" x2="376.7" y2="654" stroke="#3C2878" stroke-width="1.2" stroke-opacity="0.8"/><line x1="309.9" y1="206" x2="309.9" y2="654" stroke="#1E7A2C" stroke-width="2" stroke-opacity="0.55"/><line x1="387.9" y1="206" x2="387.9" y2="654" stroke="#3C2878" stroke-width="1.2" stroke-opacity="0.8"/><line x1="321.0" y1="206" x2="321.0" y2="654" stroke="#1E7A2C" stroke-width="2" stroke-opacity="0.55"/><line x1="399.0" y1="206" x2="399.0" y2="654" stroke="#3C2878" stroke-width="1.2" stroke-opacity="0.8"/><line x1="332.1" y1="206" x2="332.1" y2="654" stroke="#1E7A2C" stroke-width="2" stroke-opacity="0.55"/><line x1="410.1" y1="206" x2="410.1" y2="654" stroke="#3C2878" stroke-width="1.2" stroke-opacity="0.8"/><line x1="343.3" y1="206" x2="343.3" y2="654" stroke="#1E7A2C" stroke-width="2" stroke-opacity="0.55"/><line x1="421.3" y1="206" x2="421.3" y2="654" stroke="#3C2878" stroke-width="1.2" stroke-opacity="0.8"/><line x1="354.4" y1="206" x2="354.4" y2="654" stroke="#1E7A2C" stroke-width="2" stroke-opacity="0.55"/><line x1="432.4" y1="206" x2="432.4" y2="654" stroke="#3C2878" stroke-width="1.2" stroke-opacity="0.8"/><rect x="362" y="200" width="76" height="460" rx="6" fill="url(#stress)"/><rect x="282" y="221.0" width="78" height="14" rx="3" fill="#3C2878" fill-opacity="0.9"/><rect x="360" y="221.0" width="78" height="14" rx="3" fill="none" stroke="#3C2878" stroke-width="1.4"/><circle cx="365.6" cy="228.0" r="2.1" fill="#2EA83C"/><circle cx="376.7" cy="228.0" r="2.1" fill="#2EA83C"/><circle cx="387.9" cy="228.0" r="2.1" fill="#2EA83C"/><circle cx="399.0" cy="228.0" r="2.1" fill="#2EA83C"/><circle cx="410.1" cy="228.0" r="2.1" fill="#2EA83C"/><circle cx="421.3" cy="228.0" r="2.1" fill="#2EA83C"/><circle cx="432.4" cy="228.0" r="2.1" fill="#2EA83C"/><rect x="282" y="326.0" width="78" height="14" rx="3" fill="#3C2878" fill-opacity="0.9"/><rect x="360" y="326.0" width="78" height="14" rx="3" fill="none" stroke="#3C2878" stroke-width="1.4"/><circle cx="365.6" cy="333.0" r="2.1" fill="#2EA83C"/><circle cx="376.7" cy="333.0" r="2.1" fill="#2EA83C"/><circle cx="387.9" cy="333.0" r="2.1" fill="#2EA83C"/><circle cx="399.0" cy="333.0" r="2.1" fill="#2EA83C"/><circle cx="410.1" cy="333.0" r="2.1" fill="#2EA83C"/><circle cx="421.3" cy="333.0" r="2.1" fill="#2EA83C"/><circle cx="432.4" cy="333.0" r="2.1" fill="#2EA83C"/><rect x="282" y="431.0" width="78" height="14" rx="3" fill="#3C2878" fill-opacity="0.9"/><rect x="360" y="431.0" width="78" height="14" rx="3" fill="none" stroke="#3C2878" stroke-width="1.4"/><circle cx="365.6" cy="438.0" r="2.1" fill="#DC3C14"/><circle cx="376.7" cy="438.0" r="2.1" fill="#DC3C14"/><circle cx="387.9" cy="438.0" r="2.1" fill="#DC3C14"/><circle cx="399.0" cy="438.0" r="2.1" fill="#DC3C14"/><circle cx="410.1" cy="438.0" r="2.1" fill="#DC3C14"/><circle cx="421.3" cy="438.0" r="2.1" fill="#DC3C14"/><circle cx="432.4" cy="438.0" r="2.1" fill="#DC3C14"/><rect x="282" y="536.0" width="78" height="14" rx="3" fill="#3C2878" fill-opacity="0.9"/><rect x="360" y="536.0" width="78" height="14" rx="3" fill="none" stroke="#3C2878" stroke-width="1.4"/><circle cx="365.6" cy="543.0" r="2.1" fill="#DC3C14"/><circle cx="376.7" cy="543.0" r="2.1" fill="#DC3C14"/><circle cx="387.9" cy="543.0" r="2.1" fill="#DC3C14"/><circle cx="399.0" cy="543.0" r="2.1" fill="#DC3C14"/><circle cx="410.1" cy="543.0" r="2.1" fill="#DC3C14"/><circle cx="421.3" cy="543.0" r="2.1" fill="#DC3C14"/><circle cx="432.4" cy="543.0" r="2.1" fill="#DC3C14"/><rect x="282" y="641.0" width="78" height="14" rx="3" fill="#3C2878" fill-opacity="0.9"/><rect x="360" y="641.0" width="78" height="14" rx="3" fill="none" stroke="#3C2878" stroke-width="1.4"/><circle cx="365.6" cy="648.0" r="2.1" fill="#2EA83C"/><circle cx="376.7" cy="648.0" r="2.1" fill="#2EA83C"/><circle cx="387.9" cy="648.0" r="2.1" fill="#2EA83C"/><circle cx="399.0" cy="648.0" r="2.1" fill="#2EA83C"/><circle cx="410.1" cy="648.0" r="2.1" fill="#2EA83C"/><circle cx="421.3" cy="648.0" r="2.1" fill="#2EA83C"/><circle cx="432.4" cy="648.0" r="2.1" fill="#2EA83C"/><polygon points="282.0,660.0 438.0,660.0 394.0,704.0 326.0,704.0" fill="url(#head)" stroke="#142814" stroke-width="1.5"/><line x1="360" y1="154" x2="360" y2="710" stroke="#3C2878" stroke-width="1.4" stroke-dasharray="5 5" stroke-opacity="0.7"/><text x="282" y="712" font-family="DejaVu Sans, Arial" font-size="13" fill="#1E7A2C" font-weight="600" text-anchor="start">реальное</text><text x="438" y="712" font-family="DejaVu Sans, Arial" font-size="13" fill="#3C2878" font-weight="600" text-anchor="end">двойник</text><polygon points="510.0,168.0 529.1,179.0 510.0,190.0 490.9,179.0" fill="#FFFFFF" stroke="#142814" stroke-width="1"/><polygon points="490.9,179.0 510.0,190.0 490.9,201.0 471.9,190.0" fill="#F2C200" stroke="#142814" stroke-width="1"/><polygon points="471.9,190.0 490.9,201.0 471.9,212.0 452.8,201.0" fill="#FFFFFF" stroke="#142814" stroke-width="1"/><polygon points="529.1,179.0 548.1,190.0 529.1,201.0 510.0,190.0" fill="#FFFFFF" stroke="#142814" stroke-width="1"/><polygon points="510.0,190.0 529.1,201.0 510.0,212.0 490.9,201.0" fill="#FFFFFF" stroke="#142814" stroke-width="1"/><polygon points="490.9,201.0 510.0,212.0 490.9,223.0 471.9,212.0" fill="#F2C200" stroke="#142814" stroke-width="1"/><polygon points="548.1,190.0 567.2,201.0 548.1,212.0 529.1,201.0" fill="#F2C200" stroke="#142814" stroke-width="1"/><polygon points="529.1,201.0 548.1,212.0 529.1,223.0 510.0,212.0" fill="#FFFFFF" stroke="#142814" stroke-width="1"/><polygon points="510.0,212.0 529.1,223.0 510.0,234.0 490.9,223.0" fill="#FFFFFF" stroke="#142814" stroke-width="1"/><polygon points="452.8,201.0 471.9,190.0 471.9,212.0 452.8,223.0" fill="#2EA83C" stroke="#142814" stroke-width="1"/><polygon points="452.8,223.0 471.9,212.0 471.9,234.0 452.8,245.0" fill="#2EA83C" stroke="#142814" stroke-width="1"/><polygon points="452.8,245.0 471.9,234.0 471.9,256.0 452.8,267.0" fill="#DC3C14" stroke="#142814" stroke-width="1"/><polygon points="471.9,190.0 490.9,179.0 490.9,201.0 471.9,212.0" fill="#2EA83C" stroke="#142814" stroke-width="1"/><polygon points="471.9,212.0 490.9,201.0 490.9,223.0 471.9,234.0" fill="#DC3C14" stroke="#142814" stroke-width="1"/><polygon points="471.9,234.0 490.9,223.0 490.9,245.0 471.9,256.0" fill="#2EA83C" stroke="#142814" stroke-width="1"/><polygon points="490.9,179.0 510.0,168.0 510.0,190.0 490.9,201.0" fill="#2EA83C" stroke="#142814" stroke-width="1"/><polygon points="490.9,201.0 510.0,190.0 510.0,212.0 490.9,223.0" fill="#2EA83C" stroke="#142814" stroke-width="1"/><polygon points="490.9,223.0 510.0,212.0 510.0,234.0 490.9,245.0" fill="#2EA83C" stroke="#142814" stroke-width="1"/><polygon points="567.2,201.0 548.1,190.0 548.1,212.0 567.2,223.0" fill="#2750A8" stroke="#142814" stroke-width="1"/><polygon points="567.2,223.0 548.1,212.0 548.1,234.0 567.2,245.0" fill="#2750A8" stroke="#142814" stroke-width="1"/><polygon points="567.2,245.0 548.1,234.0 548.1,256.0 567.2,267.0" fill="#F08000" stroke="#142814" stroke-width="1"/><polygon points="548.1,190.0 529.1,179.0 529.1,201.0 548.1,212.0" fill="#F08000" stroke="#142814" stroke-width="1"/><polygon points="548.1,212.0 529.1,201.0 529.1,223.0 548.1,234.0" fill="#2750A8" stroke="#142814" stroke-width="1"/><polygon points="548.1,234.0 529.1,223.0 529.1,245.0 548.1,256.0" fill="#2750A8" stroke="#142814" stroke-width="1"/><polygon points="529.1,179.0 510.0,168.0 510.0,190.0 529.1,201.0" fill="#2750A8" stroke="#142814" stroke-width="1"/><polygon points="529.1,201.0 510.0,190.0 510.0,212.0 529.1,223.0" fill="#F08000" stroke="#142814" stroke-width="1"/><polygon points="529.1,223.0 510.0,212.0 510.0,234.0 529.1,245.0" fill="#2750A8" stroke="#142814" stroke-width="1"/><text x="480" y="280" font-family="DejaVu Sans, Arial" font-size="12.5" fill="#142814" font-weight="600">сбалансированная</text><text x="480" y="296" font-family="DejaVu Sans, Arial" font-size="12.5" fill="#142814" font-weight="600">матрица = двойник</text><text x="790" y="176" font-family="DejaVu Sans, Arial" font-size="14" font-weight="700" fill="#3C2878">Сечение ВВЭР (6-гранное)</text><polygon points="900.0,190.0 804.7,245.0 804.7,355.0 900.0,410.0 995.3,355.0 995.3,245.0" fill="#FFFFFF" stroke="#3C2878" stroke-width="2.5"/><circle cx="820.5" cy="300.0" r="8.0" fill="#2EA83C"/><circle cx="833.7" cy="323.0" r="8.0" fill="#2EA83C"/><circle cx="847.0" cy="345.9" r="8.0" fill="#2EA83C"/><circle cx="860.2" cy="368.9" r="8.0" fill="#2EA83C"/><circle cx="833.7" cy="277.0" r="8.0" fill="#2EA83C"/><circle cx="847.0" cy="300.0" r="8.0" fill="#2EA83C"/><circle cx="860.2" cy="323.0" r="11.1" fill="none" stroke="#3C2878" stroke-width="2"/><circle cx="873.5" cy="345.9" r="8.0" fill="#2EA83C"/><circle cx="886.7" cy="368.9" r="8.0" fill="#2EA83C"/><circle cx="847.0" cy="254.1" r="8.0" fill="#2EA83C"/><circle cx="860.2" cy="277.0" r="11.1" fill="none" stroke="#3C2878" stroke-width="2"/><circle cx="873.5" cy="300.0" r="8.0" fill="#2EA83C"/><circle cx="886.7" cy="323.0" r="8.0" fill="#2EA83C"/><circle cx="900.0" cy="345.9" r="8.0" fill="#2EA83C"/><circle cx="913.3" cy="368.9" r="8.0" fill="#2EA83C"/><circle cx="860.2" cy="231.1" r="8.0" fill="#2EA83C"/><circle cx="873.5" cy="254.1" r="8.0" fill="#2EA83C"/><circle cx="886.7" cy="277.0" r="8.0" fill="#DC3C14"/><circle cx="900.0" cy="300.0" r="11.1" fill="none" stroke="#3C2878" stroke-width="2"/><circle cx="913.3" cy="323.0" r="8.0" fill="#DC3C14"/><circle cx="926.5" cy="345.9" r="8.0" fill="#2EA83C"/><circle cx="939.8" cy="368.9" r="8.0" fill="#2EA83C"/><circle cx="886.7" cy="231.1" r="8.0" fill="#2EA83C"/><circle cx="900.0" cy="254.1" r="8.0" fill="#2EA83C"/><circle cx="913.3" cy="277.0" r="8.0" fill="#2EA83C"/><circle cx="926.5" cy="300.0" r="8.0" fill="#DC3C14"/><circle cx="939.8" cy="323.0" r="11.1" fill="none" stroke="#3C2878" stroke-width="2"/><circle cx="953.0" cy="345.9" r="8.0" fill="#2EA83C"/><circle cx="913.3" cy="231.1" r="8.0" fill="#2EA83C"/><circle cx="926.5" cy="254.1" r="8.0" fill="#2EA83C"/><circle cx="939.8" cy="277.0" r="11.1" fill="none" stroke="#3C2878" stroke-width="2"/><circle cx="953.0" cy="300.0" r="8.0" fill="#2EA83C"/><circle cx="966.3" cy="323.0" r="8.0" fill="#2EA83C"/><circle cx="939.8" cy="231.1" r="8.0" fill="#2EA83C"/><circle cx="953.0" cy="254.1" r="8.0" fill="#2EA83C"/><circle cx="966.3" cy="277.0" r="8.0" fill="#2EA83C"/><circle cx="979.5" cy="300.0" r="8.0" fill="#2EA83C"/><text x="838" y="460" font-family="DejaVu Sans, Arial" font-size="14" font-weight="700" fill="#3C2878">ТВС-К (PWR, 17x17)</text><rect x="838" y="470" width="150" height="150" rx="4" fill="#FFFFFF" stroke="#3C2878" stroke-width="2.5"/><circle cx="853.0" cy="485.0" r="3.6" fill="#2EA83C"/><circle cx="853.0" cy="500.0" r="3.6" fill="#2EA83C"/><circle cx="853.0" cy="515.0" r="3.6" fill="#2EA83C"/><circle cx="853.0" cy="530.0" r="3.6" fill="#2EA83C"/><circle cx="853.0" cy="545.0" r="3.6" fill="#2EA83C"/><circle cx="853.0" cy="560.0" r="3.6" fill="#2EA83C"/><circle cx="853.0" cy="575.0" r="3.6" fill="#2EA83C"/><circle cx="853.0" cy="590.0" r="3.6" fill="#2EA83C"/><circle cx="853.0" cy="605.0" r="3.6" fill="#2EA83C"/><circle cx="868.0" cy="485.0" r="3.6" fill="#2EA83C"/><circle cx="868.0" cy="500.0" r="3.6" fill="#2EA83C"/><circle cx="868.0" cy="515.0" r="3.6" fill="#2EA83C"/><circle cx="868.0" cy="530.0" r="3.6" fill="#2EA83C"/><circle cx="868.0" cy="545.0" r="3.6" fill="#2EA83C"/><circle cx="868.0" cy="560.0" r="3.6" fill="#2EA83C"/><circle cx="868.0" cy="575.0" r="3.6" fill="#2EA83C"/><circle cx="868.0" cy="590.0" r="3.6" fill="#2EA83C"/><circle cx="868.0" cy="605.0" r="3.6" fill="#2EA83C"/><circle cx="883.0" cy="485.0" r="3.6" fill="#2EA83C"/><circle cx="883.0" cy="500.0" r="3.6" fill="#2EA83C"/><circle cx="883.0" cy="515.0" r="5.1" fill="none" stroke="#3C2878" stroke-width="1.6"/><circle cx="883.0" cy="530.0" r="3.6" fill="#2EA83C"/><circle cx="883.0" cy="545.0" r="3.6" fill="#2EA83C"/><circle cx="883.0" cy="560.0" r="3.6" fill="#2EA83C"/><circle cx="883.0" cy="575.0" r="5.1" fill="none" stroke="#3C2878" stroke-width="1.6"/><circle cx="883.0" cy="590.0" r="3.6" fill="#2EA83C"/><circle cx="883.0" cy="605.0" r="3.6" fill="#2EA83C"/><circle cx="898.0" cy="485.0" r="3.6" fill="#2EA83C"/><circle cx="898.0" cy="500.0" r="3.6" fill="#2EA83C"/><circle cx="898.0" cy="515.0" r="3.6" fill="#2EA83C"/><circle cx="898.0" cy="530.0" r="3.6" fill="#2EA83C"/><circle cx="898.0" cy="545.0" r="3.6" fill="#2EA83C"/><circle cx="898.0" cy="560.0" r="3.6" fill="#2EA83C"/><circle cx="898.0" cy="575.0" r="3.6" fill="#2EA83C"/><circle cx="898.0" cy="590.0" r="3.6" fill="#2EA83C"/><circle cx="898.0" cy="605.0" r="3.6" fill="#2EA83C"/><circle cx="913.0" cy="485.0" r="3.6" fill="#2EA83C"/><circle cx="913.0" cy="500.0" r="3.6" fill="#2EA83C"/><circle cx="913.0" cy="515.0" r="3.6" fill="#2EA83C"/><circle cx="913.0" cy="530.0" r="3.6" fill="#2EA83C"/><circle cx="913.0" cy="545.0" r="5.1" fill="none" stroke="#3C2878" stroke-width="1.6"/><circle cx="913.0" cy="560.0" r="3.6" fill="#2EA83C"/><circle cx="913.0" cy="575.0" r="3.6" fill="#2EA83C"/><circle cx="913.0" cy="590.0" r="3.6" fill="#2EA83C"/><circle cx="913.0" cy="605.0" r="3.6" fill="#2EA83C"/><circle cx="928.0" cy="485.0" r="3.6" fill="#2EA83C"/><circle cx="928.0" cy="500.0" r="3.6" fill="#2EA83C"/><circle cx="928.0" cy="515.0" r="3.6" fill="#2EA83C"/><circle cx="928.0" cy="530.0" r="3.6" fill="#2EA83C"/><circle cx="928.0" cy="545.0" r="3.6" fill="#2EA83C"/><circle cx="928.0" cy="560.0" r="3.6" fill="#2EA83C"/><circle cx="928.0" cy="575.0" r="3.6" fill="#2EA83C"/><circle cx="928.0" cy="590.0" r="3.6" fill="#2EA83C"/><circle cx="928.0" cy="605.0" r="3.6" fill="#2EA83C"/><circle cx="943.0" cy="485.0" r="3.6" fill="#2EA83C"/><circle cx="943.0" cy="500.0" r="3.6" fill="#2EA83C"/><circle cx="943.0" cy="515.0" r="5.1" fill="none" stroke="#3C2878" stroke-width="1.6"/><circle cx="943.0" cy="530.0" r="3.6" fill="#2EA83C"/><circle cx="943.0" cy="545.0" r="3.6" fill="#2EA83C"/><circle cx="943.0" cy="560.0" r="3.6" fill="#2EA83C"/><circle cx="943.0" cy="575.0" r="5.1" fill="none" stroke="#3C2878" stroke-width="1.6"/><circle cx="943.0" cy="590.0" r="3.6" fill="#2EA83C"/><circle cx="943.0" cy="605.0" r="3.6" fill="#2EA83C"/><circle cx="958.0" cy="485.0" r="3.6" fill="#2EA83C"/><circle cx="958.0" cy="500.0" r="3.6" fill="#2EA83C"/><circle cx="958.0" cy="515.0" r="3.6" fill="#2EA83C"/><circle cx="958.0" cy="530.0" r="3.6" fill="#2EA83C"/><circle cx="958.0" cy="545.0" r="3.6" fill="#2EA83C"/><circle cx="958.0" cy="560.0" r="3.6" fill="#2EA83C"/><circle cx="958.0" cy="575.0" r="3.6" fill="#2EA83C"/><circle cx="958.0" cy="590.0" r="3.6" fill="#2EA83C"/><circle cx="958.0" cy="605.0" r="3.6" fill="#2EA83C"/><circle cx="973.0" cy="485.0" r="3.6" fill="#2EA83C"/><circle cx="973.0" cy="500.0" r="3.6" fill="#2EA83C"/><circle cx="973.0" cy="515.0" r="3.6" fill="#2EA83C"/><circle cx="973.0" cy="530.0" r="3.6" fill="#2EA83C"/><circle cx="973.0" cy="545.0" r="3.6" fill="#2EA83C"/><circle cx="973.0" cy="560.0" r="3.6" fill="#2EA83C"/><circle cx="973.0" cy="575.0" r="3.6" fill="#2EA83C"/><circle cx="973.0" cy="590.0" r="3.6" fill="#2EA83C"/><circle cx="973.0" cy="605.0" r="3.6" fill="#2EA83C"/><rect x="44" y="752" width="151" height="34" rx="17" fill="#DC3C14"/><text x="120" y="774" font-family="DejaVu Sans, Arial" font-size="14" fill="#FFFFFF" text-anchor="middle" font-weight="600">Прочность · НДС</text><rect x="209.0" y="752" width="135" height="34" rx="17" fill="#1E7A2C"/><text x="276" y="774" font-family="DejaVu Sans, Arial" font-size="14" fill="#FFFFFF" text-anchor="middle" font-weight="600">Гидродинамика</text><rect x="357.6" y="752" width="176" height="34" rx="17" fill="#3C2878"/><text x="445" y="774" font-family="DejaVu Sans, Arial" font-size="14" fill="#FFFFFF" text-anchor="middle" font-weight="600">Безопасность · ТУК</text><rect x="547.2" y="752" width="77" height="34" rx="17" fill="#142814"/><text x="586" y="774" font-family="DejaVu Sans, Arial" font-size="14" fill="#FFFFFF" text-anchor="middle" font-weight="600">ОР СУЗ</text><rect x="638.4000000000001" y="752" width="220" height="34" rx="17" fill="none" stroke="#1E7A2C" stroke-width="2"/><text x="748.4000000000001" y="774" font-family="DejaVu Sans, Arial" font-size="13.5" fill="#1E7A2C" text-anchor="middle" font-weight="600">виртуальные = натурные</text></svg>